# xmcd CD database file
#
# Track frame offsets:
#	150
#	21406
#	50087
#	75753
#	95765
#	136909
#	160028
#	194426
#
# Disc length: 2923 seconds
#
# Revision: 1
# Processed by: cddbd v1.4PL0 Copyright (c) Steve Scherf et al.
# Submitted via: CDex 1.40Release
#
DISCID=610b6908
DTITLE=The Mike Hoddinott Blues Allstars - Five Live
DYEAR=2001
DGENRE=Blues
TTITLE0=Further on up the road
TTITLE1=Blackjack
TTITLE2=Sometimes I wonder
TTITLE3=Eyesight to the blind
TTITLE4=Losing hand
TTITLE5=Lucille
TTITLE6=The moon is full
TTITLE7=Doctor Brown
EXTD=YEAR: 2001 ID3G: 0
EXTT0=
EXTT1=
EXTT2=
EXTT3=
EXTT4=
EXTT5=
EXTT6=
EXTT7=
PLAYORDER=
